<?xml version="1.0" encoding="utf-8"?>
<!-- Generator: Adobe Illustrator 26.2.1, SVG Export Plug-In . SVG Version: 6.00 Build 0)  -->
<svg version="1.1" id="Capa_1" xmlns="http://www.w3.org/2000/svg" xmlns:xlink="http://www.w3.org/1999/xlink" x="0px" y="0px"
	 viewBox="0 0 2223 491.4" style="enable-background:new 0 0 2223 491.4;" xml:space="preserve">
<style type="text/css">
	.st0{fill:#FFFFFF;}
</style>
<g>
	<path class="st0" d="M308.8,0c50.9,0,92.4,42.3,92.4,94.2v397.2h-87.8V94.2c0-2.7-2-4.8-4.7-4.8H0V0H308.8z"/>
	<path class="st0" d="M574.8,213.7c16.3,0,29.6,13.3,29.6,29.9v125h-28.1v-52.1h-96.1v52.1h-27.9v-125c0-16.6,13.1-29.9,29.4-29.9
		H574.8z M576.2,288.1v-44.5c0-0.9-0.6-1.5-1.5-1.5h-93.1c-0.9,0-1.5,0.6-1.5,1.5v44.5H576.2z"/>
</g>
<path class="st0" d="M894.8,313.6v54.3H707.9c-31.5,0-57.2-25.7-57.2-57.2v-126c0-31.5,25.7-57.2,57.2-57.2H894v54.3H707.9
	c-1.7,0-2.9,1.2-2.9,2.9v126c0,1.7,1.2,2.9,2.9,2.9L894.8,313.6L894.8,313.6z"/>
<path class="st0" d="M1173.3,127.5v183.2c0,31.5-25.7,57.2-57.2,57.2H986.4c-31.9,0-57.2-25.7-57.2-57.2V127.5h54.3v183.2
	c0,1.7,1.2,2.9,2.9,2.9h129.7c1.7,0,2.9-1.2,2.9-2.9V127.5H1173.3z"/>
<path class="st0" d="M1451,184.7V275h-189.8v35.6c0,1.7,1.2,2.9,2.9,2.9H1451v54.3h-186.9c-31.5,0-57.2-25.7-57.2-57.2v-126
	c0-31.5,25.7-57.2,57.2-57.2h129.7C1425.3,127.5,1451,153.2,1451,184.7z M1396.7,220.3v-35.6c0-1.7-1.2-2.9-2.9-2.9h-129.7
	c-1.7,0-2.9,1.2-2.9,2.9v35.6H1396.7z"/>
<path class="st0" d="M1674.3,127.5v54.3h-133.4c-1.7,0-2.9,1.2-2.9,2.9v183.2h-54.3V184.7c0-31.5,25.7-57.2,57.2-57.2
	C1540.9,127.5,1674.3,127.5,1674.3,127.5z"/>
<path class="st0" d="M1935,48.7v319.1h-187.3c-31.5,0-57.2-25.7-57.2-57.2v-126c0-31.5,25.7-57.2,57.2-57.2h133V48.7H1935z
	 M1877.8,313.6c1.7,0,2.9-1.2,2.9-2.9v-126c0-1.7-1.2-2.9-2.9-2.9h-130.1c-1.7,0-2.5,1.2-2.5,2.9v126c0,1.7,0.8,2.9,2.5,2.9H1877.8z
	"/>
<path class="st0" d="M2223,184.7v183.2h-186.9c-31.5,0-57.2-25.7-57.2-57.2v-90.3h189.8v-35.6c0-1.7-1.2-2.9-2.9-2.9H1979v-54.3
	h186.9C2197.3,127.5,2223,153.2,2223,184.7z M2168.7,275h-135.5v35.6c0,1.7,1.2,2.9,2.9,2.9h132.6V275z"/>
<g>
	<path class="st0" d="M717.9,425c6.6,0,12,5.4,12,12v42.4c0,6.6-5.3,12-12,12h-54.4V425L717.9,425L717.9,425z M720,437
		c0-1.1-0.9-2-2-2h-42.4c-1.1,0-2,0.9-2,2v42.4c0,1.1,0.9,2,2,2h42.4c1.1,0,2-0.9,2-2L720,437L720,437z"/>
	<path class="st0" d="M749.8,420.4v10h-10v-10H749.8z M739.9,437.9h10v53.5h-10V437.9z"/>
	<path class="st0" d="M813.1,451.9h-10v-2c0-1.1-0.9-2-2-2h-30.4c-1.1,0-2,0.9-2,2v7.8c0,1.1,0.9,2,2,2h30.4c6.6,0,12,5.4,12,12v7.8
		c0,6.6-5.3,12-12,12h-30.4c-6.6,0-12-5.4-12-12v-2h10v2c0,1.1,0.9,2,2,2h30.4c1.1,0,2-0.9,2-2v-7.8c0-1.1-0.9-2-2-2h-30.4
		c-6.6,0-12-5.4-12-12v-7.8c0-6.6,5.3-12,12-12h30.4c6.6,0,12,5.4,12,12V451.9z"/>
	<path class="st0" d="M876.2,449.9v19.7h-44.5v9.8c0,1.1,0.9,2,2,2h42.4v10h-42.4c-6.6,0-12-5.4-12-12v-29.5c0-6.6,5.3-12,12-12
		h30.4C870.8,437.9,876.2,443.2,876.2,449.9z M866.2,459.7v-9.8c0-1.1-0.9-2-2-2h-30.4c-1.1,0-2,0.9-2,2v9.8H866.2z"/>
	<path class="st0" d="M940.3,449.9v41.5h-10v-41.5c0-1.1-0.9-2-2-2h-30.4c-1.1,0-2,0.9-2,2v41.5h-10v-53.5h42.4
		C934.9,437.9,940.3,443.2,940.3,449.9z M929.8,416.5v6.8c-1.9,0.8-4.3,1.7-7.2,1.7c-6.5,0-11.4-6.3-18.5-6.3c-2,0-5.6,0.2-6.8,2.1
		v-6.9c1.8-0.7,4.1-1.3,6.8-1.3c6.8,0,11.6,5.5,18.5,6.3C925.2,418.9,927.5,418,929.8,416.5z"/>
	<path class="st0" d="M993.3,437.9c6.6,0,12,5.4,12,12v29.5c0,6.6-5.3,12-12,12h-30.4c-6.6,0-12-5.4-12-12v-29.5c0-6.6,5.3-12,12-12
		H993.3z M962.9,447.9c-1.1,0-2,0.9-2,2v29.5c0,1.1,0.9,2,2,2h30.4c1.1,0,2-0.9,2-2v-29.5c0-1.1-0.9-2-2-2H962.9z"/>
	<path class="st0" d="M1093.3,420.4v71h-42.4c-6.6,0-12-5.4-12-12v-29.5c0-6.6,5.3-12,12-12h32.5v-17.5L1093.3,420.4L1093.3,420.4z
		 M1081.3,481.4c1.1,0,2-0.9,2-2v-29.5c0-1.1-0.9-2-2-2h-30.4c-1.1,0-2,0.9-2,2v29.5c0,1.1,0.9,2,2,2H1081.3z"/>
	<path class="st0" d="M1156,449.9v19.7h-44.4v9.8c0,1.1,0.9,2,2,2h42.4v10h-42.4c-6.6,0-12-5.4-12-12v-29.5c0-6.6,5.3-12,12-12h30.4
		C1150.6,437.9,1156,443.2,1156,449.9z M1146,459.7v-9.8c0-1.1-0.9-2-2-2h-30.4c-1.1,0-2,0.9-2,2v9.8H1146z"/>
	<path class="st0" d="M1258.5,440.9h-10V437c0-1.1-0.9-2-2-2h-42.4c-1.1,0-2,0.9-2,2v14.2c0,1.1,0.9,2,2,2h42.4c6.6,0,12,5.4,12,12
		v14.2c0,6.6-5.3,12-12,12h-42.4c-6.6,0-12-5.4-12-12v-3.9h10v3.9c0,1.1,0.9,2,2,2h42.4c1.1,0,2-0.9,2-2v-14.2c0-1.1-0.9-2-2-2
		h-42.4c-6.6,0-12-5.4-12-12V437c0-6.6,5.3-12,12-12h42.4c6.6,0,12,5.4,12,12V440.9z"/>
	<path class="st0" d="M1310.3,437.9c6.6,0,12,5.4,12,12v29.5c0,6.6-5.3,12-12,12h-30.4c-6.6,0-12-5.4-12-12v-29.5
		c0-6.6,5.3-12,12-12H1310.3z M1279.9,447.9c-1.1,0-2,0.9-2,2v29.5c0,1.1,0.9,2,2,2h30.4c1.1,0,2-0.9,2-2v-29.5c0-1.1-0.9-2-2-2
		H1279.9z"/>
	<path class="st0" d="M1385,449.9v41.5h-10v-41.5c0-1.1-0.9-2-2-2h-30.4c-1.1,0-2,0.9-2,2v41.5h-10v-53.5h42.4
		C1379.7,437.9,1385,443.2,1385,449.9z"/>
	<path class="st0" d="M1404.6,420.4v10h-10v-10H1404.6z M1394.6,437.9h10v53.5h-10V437.9z"/>
	<path class="st0" d="M1465.6,420.4v71h-42.4c-6.6,0-12-5.4-12-12v-29.5c0-6.6,5.3-12,12-12h32.5v-17.5L1465.6,420.4L1465.6,420.4z
		 M1453.6,481.4c1.1,0,2-0.9,2-2v-29.5c0-1.1-0.9-2-2-2h-30.4c-1.1,0-2,0.9-2,2v29.5c0,1.1,0.9,2,2,2H1453.6z"/>
	<path class="st0" d="M1515.4,437.9c6.6,0,12,5.4,12,12v29.5c0,6.6-5.3,12-12,12H1485c-6.6,0-12-5.4-12-12v-29.5c0-6.6,5.3-12,12-12
		H1515.4z M1485,447.9c-1.1,0-2,0.9-2,2v29.5c0,1.1,0.9,2,2,2h30.4c1.1,0,2-0.9,2-2v-29.5c0-1.1-0.9-2-2-2H1485z"/>
	<path class="st0" d="M1601.2,469.1h-36.9v-10h36.9V469.1z"/>
	<path class="st0" d="M1693.1,425c6.6,0,12,5.4,12,12v54.4h-10v-23.2h-46.5v23.2h-10V437c0-6.6,5.3-12,12-12H1693.1z M1695.1,458.2
		V437c0-1.1-0.9-2-2-2h-42.4c-1.1,0-2,0.9-2,2v21.2H1695.1z"/>
	<path class="st0" d="M1769.7,437.9v41.5c0,6.6-5.3,12-12,12h-30.4c-6.6,0-12-5.4-12-12v-41.5h10v41.5c0,1.1,0.9,2,2,2h30.4
		c1.1,0,2-0.9,2-2v-41.5H1769.7z"/>
	<path class="st0" d="M1831,420.4v71h-42.4c-6.6,0-12-5.4-12-12v-29.5c0-6.6,5.3-12,12-12h32.5v-17.5L1831,420.4L1831,420.4z
		 M1819,481.4c1.1,0,2-0.9,2-2v-29.5c0-1.1-0.9-2-2-2h-30.4c-1.1,0-2,0.9-2,2v29.5c0,1.1,0.9,2,2,2H1819z"/>
	<path class="st0" d="M1850.7,420.4v10h-10v-10H1850.7z M1840.8,437.9h10v53.5h-10V437.9z"/>
	<path class="st0" d="M1902.3,437.9c6.6,0,12,5.4,12,12v29.5c0,6.6-5.3,12-12,12h-30.4c-6.6,0-12-5.4-12-12v-29.5
		c0-6.6,5.3-12,12-12H1902.3z M1871.9,447.9c-1.1,0-2,0.9-2,2v29.5c0,1.1,0.9,2,2,2h30.4c1.1,0,2-0.9,2-2v-29.5c0-1.1-0.9-2-2-2
		H1871.9z"/>
	<path class="st0" d="M1986.7,437.9l-29.5,53.5h-10l-29.5-53.5h11.5l23,42.2l23.1-42.2H1986.7z"/>
	<path class="st0" d="M2002.6,420.4v10h-10v-10H2002.6z M1992.7,437.9h10v53.5h-10V437.9z"/>
	<path class="st0" d="M2065.9,451.9h-10v-2c0-1.1-0.9-2-2-2h-30.4c-1.1,0-2,0.9-2,2v7.8c0,1.1,0.9,2,2,2h30.4c6.6,0,12,5.4,12,12
		v7.8c0,6.6-5.4,12-12,12h-30.4c-6.6,0-12-5.4-12-12v-2h10v2c0,1.1,0.9,2,2,2h30.4c1.1,0,2-0.9,2-2v-7.8c0-1.1-0.9-2-2-2h-30.4
		c-6.6,0-12-5.4-12-12v-7.8c0-6.6,5.3-12,12-12h30.4c6.6,0,12,5.4,12,12V451.9z"/>
	<path class="st0" d="M2128.2,437.9v41.5c0,6.6-5.4,12-12,12h-30.4c-6.6,0-12-5.4-12-12v-41.5h10v41.5c0,1.1,0.9,2,2,2h30.4
		c1.1,0,2-0.9,2-2v-41.5H2128.2z"/>
	<path class="st0" d="M2192.2,449.9v41.5h-42.4c-6.6,0-12-5.4-12-12v-19.7h44.4v-9.8c0-1.1-0.9-2-2-2h-42.4v-10h42.4
		C2186.9,437.9,2192.2,443.2,2192.2,449.9z M2182.3,469.6h-34.5v9.8c0,1.1,0.9,2,2,2h32.5V469.6z"/>
	<path class="st0" d="M2200,420.4h10v59c0,1.1,0.9,2,2,2h10v10h-10c-6.6,0-12-5.4-12-12v-29.5V420.4z"/>
</g>
</svg>
