<?xml version="1.0" encoding="utf-8"?>
<!-- Generator: Adobe Illustrator 26.2.1, SVG Export Plug-In . SVG Version: 6.00 Build 0)  -->
<svg version="1.1" id="Capa_1" xmlns="http://www.w3.org/2000/svg" xmlns:xlink="http://www.w3.org/1999/xlink" x="0px" y="0px"
	 viewBox="0 0 2223.03 491.39" style="enable-background:new 0 0 2223.03 491.39;" xml:space="preserve">
<g>
	<path d="M308.8,0c50.91,0,92.44,42.31,92.44,94.18v397.21h-87.75V94.18c0-2.73-2.01-4.78-4.69-4.78H0V0H308.8z"/>
	<path d="M574.76,213.66c16.26,0,29.56,13.34,29.56,29.9v124.98h-28.08v-52.06h-96.06v52.06h-27.87V243.56
		c0-16.56,13.09-29.9,29.35-29.9H574.76z M576.24,288.09v-44.53c0-0.86-0.63-1.51-1.48-1.51h-93.1c-0.85,0-1.48,0.64-1.48,1.51
		v44.53H576.24z"/>
</g>
<path d="M894.83,313.56v54.29H707.93c-31.49,0-57.19-25.7-57.19-57.19V184.67c0-31.49,25.7-57.19,57.19-57.19h186.08v54.29H707.93
	c-1.65,0-2.9,1.24-2.9,2.9v125.99c0,1.66,1.25,2.9,2.9,2.9H894.83z"/>
<path d="M1173.32,127.48v183.18c0,31.49-25.69,57.19-57.19,57.19H986.42c-31.91,0-57.19-25.7-57.19-57.19V127.48h54.29v183.18
	c0,1.66,1.25,2.9,2.9,2.9h129.71c1.66,0,2.9-1.24,2.9-2.9V127.48H1173.32z"/>
<path d="M1450.98,184.67v90.34h-189.81v35.64c0,1.66,1.24,2.9,2.9,2.9h186.91v54.29h-186.91c-31.49,0-57.19-25.7-57.19-57.19V184.67
	c0-31.49,25.7-57.19,57.19-57.19h129.72C1425.28,127.48,1450.98,153.18,1450.98,184.67z M1396.69,220.31v-35.64
	c0-1.66-1.24-2.9-2.9-2.9h-129.72c-1.65,0-2.9,1.24-2.9,2.9v35.64H1396.69z"/>
<path d="M1674.35,127.48v54.29H1540.9c-1.66,0-2.9,1.24-2.9,2.9v183.18h-54.29V184.67c0-31.49,25.69-57.19,57.19-57.19H1674.35z"/>
<path d="M1935.02,48.74v319.11H1747.7c-31.5,0-57.19-25.7-57.19-57.19V184.67c0-31.49,25.69-57.19,57.19-57.19h133.03V48.74H1935.02
	z M1877.82,313.56c1.66,0,2.9-1.24,2.9-2.9V184.67c0-1.66-1.24-2.9-2.9-2.9H1747.7c-1.66,0-2.49,1.24-2.49,2.9v125.99
	c0,1.66,0.83,2.9,2.49,2.9H1877.82z"/>
<path d="M2223.03,184.67v183.18h-186.9c-31.5,0-57.19-25.7-57.19-57.19v-90.34h189.81v-35.64c0-1.66-1.25-2.9-2.9-2.9h-186.9v-54.29
	h186.9C2197.34,127.48,2223.03,153.18,2223.03,184.67z M2168.74,275.01h-135.52v35.64c0,1.66,1.24,2.9,2.9,2.9h132.62V275.01z"/>
<g>
	<path d="M717.93,424.99c6.64,0,11.99,5.35,11.99,11.99v42.42c0,6.64-5.35,11.99-11.99,11.99h-54.41v-66.4H717.93z M719.96,436.98
		c0-1.11-0.92-2.03-2.03-2.03H675.5c-1.11,0-2.03,0.92-2.03,2.03v42.42c0,1.11,0.92,2.03,2.03,2.03h42.42
		c1.11,0,2.03-0.92,2.03-2.03V436.98z"/>
	<path d="M749.83,420.38v9.96h-9.96v-9.96H749.83z M739.87,437.9h9.96v53.49h-9.96V437.9z"/>
	<path d="M813.1,451.92h-9.96v-2.03c0-1.11-0.92-2.03-2.03-2.03h-30.43c-1.11,0-2.03,0.92-2.03,2.03v7.75
		c0,1.11,0.92,2.03,2.03,2.03h30.43c6.64,0,11.99,5.35,11.99,11.99v7.75c0,6.64-5.35,11.99-11.99,11.99h-30.43
		c-6.64,0-11.99-5.35-11.99-11.99v-2.03h9.96v2.03c0,1.11,0.92,2.03,2.03,2.03h30.43c1.11,0,2.03-0.92,2.03-2.03v-7.75
		c0-1.11-0.92-2.03-2.03-2.03h-30.43c-6.64,0-11.99-5.35-11.99-11.99v-7.75c0-6.64,5.35-11.99,11.99-11.99h30.43
		c6.64,0,11.99,5.35,11.99,11.99V451.92z"/>
	<path d="M876.17,449.89v19.74h-44.45v9.78c0,1.11,0.92,2.03,2.03,2.03h42.42v9.96h-42.42c-6.64,0-11.99-5.35-11.99-11.99v-29.51
		c0-6.64,5.35-11.99,11.99-11.99h30.43C870.83,437.9,876.17,443.25,876.17,449.89z M866.22,459.67v-9.78c0-1.11-0.92-2.03-2.03-2.03
		h-30.43c-1.11,0-2.03,0.92-2.03,2.03v9.78H866.22z"/>
	<path d="M940.27,449.89v41.5h-9.96v-41.5c0-1.11-0.92-2.03-2.03-2.03h-30.43c-1.11,0-2.03,0.92-2.03,2.03v41.5h-9.96V437.9h42.42
		C934.92,437.9,940.27,443.25,940.27,449.89z M929.75,416.51v6.82c-1.94,0.83-4.33,1.66-7.19,1.66c-6.55,0-11.44-6.27-18.45-6.27
		c-2.03,0-5.62,0.18-6.82,2.12v-6.92c1.75-0.74,4.06-1.29,6.82-1.29c6.83,0,11.62,5.53,18.45,6.27
		C925.23,418.91,927.54,417.98,929.75,416.51z"/>
	<path d="M993.29,437.9c6.64,0,11.99,5.35,11.99,11.99v29.51c0,6.64-5.35,11.99-11.99,11.99h-30.43c-6.64,0-11.99-5.35-11.99-11.99
		v-29.51c0-6.64,5.35-11.99,11.99-11.99H993.29z M962.86,447.86c-1.11,0-2.03,0.92-2.03,2.03v29.51c0,1.11,0.92,2.03,2.03,2.03
		h30.43c1.11,0,2.03-0.92,2.03-2.03v-29.51c0-1.11-0.92-2.03-2.03-2.03H962.86z"/>
	<path d="M1093.26,420.38v71.01h-42.42c-6.64,0-11.99-5.35-11.99-11.99v-29.51c0-6.64,5.35-11.99,11.99-11.99h32.46v-17.52H1093.26z
		 M1081.27,481.43c1.11,0,2.03-0.92,2.03-2.03v-29.51c0-1.11-0.92-2.03-2.03-2.03h-30.43c-1.11,0-2.03,0.92-2.03,2.03v29.51
		c0,1.11,0.92,2.03,2.03,2.03H1081.27z"/>
	<path d="M1155.97,449.89v19.74h-44.45v9.78c0,1.11,0.92,2.03,2.03,2.03h42.42v9.96h-42.42c-6.64,0-11.99-5.35-11.99-11.99v-29.51
		c0-6.64,5.35-11.99,11.99-11.99h30.43C1150.62,437.9,1155.97,443.25,1155.97,449.89z M1146.01,459.67v-9.78
		c0-1.11-0.92-2.03-2.03-2.03h-30.43c-1.11,0-2.03,0.92-2.03,2.03v9.78H1146.01z"/>
	<path d="M1258.51,440.85h-9.96v-3.87c0-1.11-0.92-2.03-2.03-2.03h-42.42c-1.11,0-2.03,0.92-2.03,2.03v14.2
		c0,1.11,0.92,2.03,2.03,2.03h42.42c6.64,0,11.99,5.35,11.99,11.99v14.2c0,6.64-5.35,11.99-11.99,11.99h-42.42
		c-6.64,0-11.99-5.35-11.99-11.99v-3.87h9.96v3.87c0,1.11,0.92,2.03,2.03,2.03h42.42c1.11,0,2.03-0.92,2.03-2.03v-14.2
		c0-1.11-0.92-2.03-2.03-2.03h-42.42c-6.64,0-11.99-5.35-11.99-11.99v-14.2c0-6.64,5.35-11.99,11.99-11.99h42.42
		c6.64,0,11.99,5.35,11.99,11.99V440.85z"/>
	<path d="M1310.34,437.9c6.64,0,11.99,5.35,11.99,11.99v29.51c0,6.64-5.35,11.99-11.99,11.99h-30.43c-6.64,0-11.99-5.35-11.99-11.99
		v-29.51c0-6.64,5.35-11.99,11.99-11.99H1310.34z M1279.91,447.86c-1.11,0-2.03,0.92-2.03,2.03v29.51c0,1.11,0.92,2.03,2.03,2.03
		h30.43c1.11,0,2.03-0.92,2.03-2.03v-29.51c0-1.11-0.92-2.03-2.03-2.03H1279.91z"/>
	<path d="M1385.04,449.89v41.5h-9.96v-41.5c0-1.11-0.92-2.03-2.03-2.03h-30.43c-1.11,0-2.03,0.92-2.03,2.03v41.5h-9.96V437.9h42.42
		C1379.69,437.9,1385.04,443.25,1385.04,449.89z"/>
	<path d="M1404.59,420.38v9.96h-9.96v-9.96H1404.59z M1394.63,437.9h9.96v53.49h-9.96V437.9z"/>
	<path d="M1465.55,420.38v71.01h-42.42c-6.64,0-11.99-5.35-11.99-11.99v-29.51c0-6.64,5.35-11.99,11.99-11.99h32.46v-17.52H1465.55z
		 M1453.56,481.43c1.11,0,2.03-0.92,2.03-2.03v-29.51c0-1.11-0.92-2.03-2.03-2.03h-30.43c-1.11,0-2.03,0.92-2.03,2.03v29.51
		c0,1.11,0.92,2.03,2.03,2.03H1453.56z"/>
	<path d="M1515.44,437.9c6.64,0,11.99,5.35,11.99,11.99v29.51c0,6.64-5.35,11.99-11.99,11.99H1485c-6.64,0-11.99-5.35-11.99-11.99
		v-29.51c0-6.64,5.35-11.99,11.99-11.99H1515.44z M1485,447.86c-1.11,0-2.03,0.92-2.03,2.03v29.51c0,1.11,0.92,2.03,2.03,2.03h30.43
		c1.11,0,2.03-0.92,2.03-2.03v-29.51c0-1.11-0.92-2.03-2.03-2.03H1485z"/>
	<path d="M1601.2,469.08h-36.89v-9.96h36.89V469.08z"/>
	<path d="M1693.05,424.99c6.64,0,11.99,5.35,11.99,11.99v54.41h-9.96v-23.24h-46.48v23.24h-9.96v-54.41
		c0-6.64,5.35-11.99,11.99-11.99H1693.05z M1695.08,458.19v-21.21c0-1.11-0.92-2.03-2.03-2.03h-42.42c-1.11,0-2.03,0.92-2.03,2.03
		v21.21H1695.08z"/>
	<path d="M1769.69,437.9v41.5c0,6.64-5.35,11.99-11.99,11.99h-30.43c-6.64,0-11.99-5.35-11.99-11.99v-41.5h9.96v41.5
		c0,1.11,0.92,2.03,2.03,2.03h30.43c1.11,0,2.03-0.92,2.03-2.03v-41.5H1769.69z"/>
	<path d="M1831.01,420.38v71.01h-42.42c-6.64,0-11.99-5.35-11.99-11.99v-29.51c0-6.64,5.35-11.99,11.99-11.99h32.46v-17.52H1831.01z
		 M1819.02,481.43c1.11,0,2.03-0.92,2.03-2.03v-29.51c0-1.11-0.92-2.03-2.03-2.03h-30.43c-1.11,0-2.03,0.92-2.03,2.03v29.51
		c0,1.11,0.92,2.03,2.03,2.03H1819.02z"/>
	<path d="M1850.74,420.38v9.96h-9.96v-9.96H1850.74z M1840.78,437.9h9.96v53.49h-9.96V437.9z"/>
	<path d="M1902.3,437.9c6.64,0,11.99,5.35,11.99,11.99v29.51c0,6.64-5.35,11.99-11.99,11.99h-30.43c-6.64,0-11.99-5.35-11.99-11.99
		v-29.51c0-6.64,5.35-11.99,11.99-11.99H1902.3z M1871.86,447.86c-1.11,0-2.03,0.92-2.03,2.03v29.51c0,1.11,0.92,2.03,2.03,2.03
		h30.43c1.11,0,2.03-0.92,2.03-2.03v-29.51c0-1.11-0.92-2.03-2.03-2.03H1871.86z"/>
	<path d="M1986.68,437.9l-29.51,53.49h-9.96l-29.51-53.49h11.53l22.96,42.24l23.06-42.24H1986.68z"/>
	<path d="M2002.63,420.38v9.96h-9.96v-9.96H2002.63z M1992.67,437.9h9.96v53.49h-9.96V437.9z"/>
	<path d="M2065.89,451.92h-9.96v-2.03c0-1.11-0.92-2.03-2.03-2.03h-30.43c-1.11,0-2.03,0.92-2.03,2.03v7.75
		c0,1.11,0.92,2.03,2.03,2.03h30.43c6.64,0,11.99,5.35,11.99,11.99v7.75c0,6.64-5.35,11.99-11.99,11.99h-30.43
		c-6.64,0-11.99-5.35-11.99-11.99v-2.03h9.96v2.03c0,1.11,0.92,2.03,2.03,2.03h30.43c1.11,0,2.03-0.92,2.03-2.03v-7.75
		c0-1.11-0.92-2.03-2.03-2.03h-30.43c-6.64,0-11.99-5.35-11.99-11.99v-7.75c0-6.64,5.35-11.99,11.99-11.99h30.43
		c6.64,0,11.99,5.35,11.99,11.99V451.92z"/>
	<path d="M2128.23,437.9v41.5c0,6.64-5.35,11.99-11.99,11.99h-30.43c-6.64,0-11.99-5.35-11.99-11.99v-41.5h9.96v41.5
		c0,1.11,0.92,2.03,2.03,2.03h30.43c1.11,0,2.03-0.92,2.03-2.03v-41.5H2128.23z"/>
	<path d="M2192.23,449.89v41.5h-42.42c-6.64,0-11.99-5.35-11.99-11.99v-19.74h44.45v-9.78c0-1.11-0.92-2.03-2.03-2.03h-42.42v-9.96
		h42.42C2186.89,437.9,2192.23,443.25,2192.23,449.89z M2182.27,469.63h-34.49v9.78c0,1.11,0.92,2.03,2.03,2.03h32.46V469.63z"/>
	<path d="M2199.98,420.38h9.96v59.02c0,1.11,0.92,2.03,2.03,2.03h9.96v9.96h-9.96c-6.64,0-11.99-5.35-11.99-11.99v-29.51V420.38z"/>
</g>
</svg>
