<?xml version="1.0" encoding="utf-8"?>
<!-- Generator: Adobe Illustrator 26.2.1, SVG Export Plug-In . SVG Version: 6.00 Build 0)  -->
<svg version="1.1" id="Capa_1" xmlns="http://www.w3.org/2000/svg" xmlns:xlink="http://www.w3.org/1999/xlink" x="0px" y="0px"
	 viewBox="0 0 484 249" style="enable-background:new 0 0 484 249;" xml:space="preserve">
<g>
	<path d="M156.48,0c25.8,0,46.84,21.44,46.84,47.72V249h-44.47V47.72c0-1.38-1.02-2.42-2.38-2.42H0V0H156.48z"/>
	<path d="M289.09,97c9.42,0,17.13,7.73,17.13,17.33v72.42h-16.27v-30.17h-55.66v30.17h-16.15v-72.42c0-9.6,7.58-17.33,17-17.33
		H289.09z M289.95,140.13v-25.8c0-0.5-0.37-0.87-0.86-0.87h-53.95c-0.49,0-0.86,0.37-0.86,0.87v25.8H289.95z"/>
</g>
<path d="M484,184.61v36.65H357.83c-21.26,0-38.61-17.35-38.61-38.61V97.61c0-21.26,17.35-38.61,38.61-38.61h125.62v36.65H357.83
	c-1.12,0-1.96,0.84-1.96,1.96v85.05c0,1.12,0.84,1.96,1.96,1.96H484z"/>
</svg>
